<svg width="85" height="85" viewBox="0 0 85 85" fill="none" xmlns="http://www.w3.org/2000/svg">
<path d="M64.8975 55.7601C64.086 57.6436 63.0819 59.4382 61.9013 61.1151C60.8038 62.8366 59.5212 64.4328 58.0763 65.8751C56.7437 67.1688 54.9808 67.9254 53.125 68.0001C51.5477 67.9278 49.998 67.5602 48.5563 66.9164C47.003 66.2544 45.3358 65.9008 43.6475 65.8751C41.908 65.9106 40.1913 66.2784 38.59 66.9589C37.2106 67.5775 35.7389 67.9652 34.2338 68.1064C33.2846 68.0905 32.3482 67.8849 31.4796 67.5017C30.6111 67.1185 29.8279 66.5655 29.1763 65.8751C27.6712 64.4133 26.3249 62.7964 25.16 61.0514C23.3409 58.4378 21.9095 55.5748 20.91 52.5514C19.7622 49.323 19.159 45.9263 19.125 42.5001C19.0329 39.1365 19.8712 35.8127 21.5475 32.8951C22.7324 30.7253 24.4699 28.9072 26.5838 27.6251C28.6544 26.3889 31.0149 25.7218 33.4263 25.6914C35.2464 25.8045 37.0348 26.221 38.7175 26.9239C40.0716 27.526 41.5014 27.9406 42.9675 28.1564C44.5613 27.8244 46.1197 27.3405 47.6213 26.7114C49.6422 25.8874 51.8154 25.5035 53.9963 25.5851C56.0571 25.6431 58.077 26.1734 59.9007 27.1349C61.7243 28.0965 63.3029 29.4637 64.515 31.1314C62.5919 32.1464 60.9913 33.6796 59.8947 35.5574C58.798 37.4352 58.2491 39.5826 58.31 41.7564C58.2883 43.4182 58.6199 45.0658 59.283 46.5898C59.9461 48.1138 60.9255 49.4795 62.1563 50.5964C63.2412 51.6468 64.4993 52.5023 65.875 53.1251C65.5563 54.0176 65.2375 54.8676 64.8975 55.6964V55.7601ZM54.1875 13.6001C54.1492 16.4749 53.0695 19.2383 51.1488 21.3776C50.177 22.7161 48.8973 23.8011 47.4179 24.5408C45.9384 25.2805 44.3026 25.6533 42.6488 25.6276C42.6263 25.2809 42.6263 24.9331 42.6488 24.5864C42.7395 21.6716 43.8789 18.8874 45.8575 16.7451C46.9582 15.5086 48.2948 14.5044 49.7888 13.7914C51.1857 13.0775 52.709 12.6443 54.2725 12.5164C54.293 12.8844 54.293 13.2533 54.2725 13.6214L54.1875 13.6001Z" fill="black"/>
</svg>
